<?xml version="1.0" standalone="no"?>
<!DOCTYPE svg PUBLIC "-//W3C//DTD SVG 20010904//EN"
 "http://www.w3.org/TR/2001/REC-SVG-20010904/DTD/svg10.dtd">
<svg version="1.0" xmlns="http://www.w3.org/2000/svg"
 width="512.000000pt" height="512.000000pt" viewBox="0 0 512.000000 512.000000"
 preserveAspectRatio="xMidYMid meet">
<metadata>
Created by potrace 1.14, written by Peter Selinger 2001-2017
</metadata>
<g transform="translate(0.000000,512.000000) scale(0.100000,-0.100000)"
fill="#000000" stroke="none">
<path d="M393 5106 c-186 -45 -345 -207 -382 -388 -8 -38 -11 -677 -9 -2183
l3 -2130 22 -60 c67 -175 220 -306 393 -335 46 -8 684 -10 2180 -8 l2115 3 68
27 c86 35 141 73 205 143 60 66 106 156 122 240 8 44 10 633 8 2180 l-3 2120
-23 59 c-64 169 -213 300 -380 335 -82 17 -4248 14 -4319 -3z m3437 -831 c175
-18 257 -32 329 -56 49 -17 111 -56 136 -85 6 -6 26 -14 45 -17 20 -3 58 -19
85 -36 28 -17 76 -44 108 -61 31 -17 57 -37 57 -45 0 -8 11 -22 24 -31 15 -9
32 -36 42 -67 25 -78 50 -122 79 -141 21 -14 26 -24 22 -44 -3 -16 2 -35 14
-51 26 -37 43 -224 36 -425 -6 -211 -11 -226 -85 -259 -62 -28 -187 -48 -240
-40 -31 5 -92 55 -112 94 -6 10 -10 36 -10 59 0 22 -8 53 -17 67 -14 21 -18
53 -20 155 -3 126 -4 132 -44 226 -23 53 -46 103 -51 109 -10 12 -293 155
-331 167 -10 3 -38 1 -63 -4 -29 -7 -59 -7 -89 0 -60 13 -116 0 -232 -55 -113
-53 -219 -121 -283 -181 -57 -53 -74 -96 -91 -229 -6 -49 -19 -111 -29 -136
-14 -38 -15 -49 -4 -64 7 -10 18 -43 24 -74 21 -107 37 -138 99 -186 34 -25
64 -58 72 -77 15 -38 26 -48 53 -48 27 0 212 -76 249 -102 26 -19 50 -23 142
-29 92 -5 121 -11 182 -38 40 -17 88 -31 108 -31 20 0 65 -13 100 -30 35 -16
75 -30 88 -30 30 0 38 -10 124 -140 39 -58 82 -116 96 -130 21 -19 27 -35 27
-68 0 -29 8 -55 26 -82 21 -32 27 -53 29 -112 1 -40 10 -130 20 -200 29 -200
7 -304 -98 -467 -23 -37 -58 -97 -78 -136 -19 -38 -45 -74 -57 -80 -12 -5 -22
-15 -22 -22 0 -7 -19 -22 -42 -34 -24 -12 -68 -39 -98 -59 -102 -69 -133 -80
-288 -101 -241 -33 -260 -34 -319 -10 -29 11 -92 25 -140 31 -48 6 -100 19
-114 28 -14 9 -47 30 -72 47 -25 16 -48 37 -50 47 -3 10 -12 18 -21 18 -53 0
-153 88 -238 210 -25 36 -60 78 -77 94 -24 23 -31 38 -31 68 0 21 -12 68 -27
105 -15 38 -27 84 -27 104 -1 50 48 124 107 167 62 45 117 52 182 23 51 -22
165 -110 165 -126 0 -5 25 -50 55 -99 30 -49 57 -101 60 -117 3 -15 14 -30 23
-34 9 -3 52 -31 97 -61 96 -65 106 -66 275 -29 94 20 131 33 151 51 14 13 37
24 51 24 17 0 44 15 73 40 25 22 50 40 56 40 5 0 9 28 9 63 0 40 5 70 15 83 8
10 15 29 15 42 0 12 6 31 12 42 17 26 -13 148 -42 172 -11 9 -20 26 -20 37 0
11 -9 26 -21 33 -11 7 -29 30 -40 50 -23 44 -72 72 -199 113 -81 26 -159 34
-258 25 -24 -3 -40 3 -60 22 -34 32 -89 48 -168 48 -105 0 -175 36 -301 153
-83 78 -193 213 -193 238 0 10 -12 31 -26 46 -14 15 -32 35 -40 44 -8 9 -14
29 -14 45 0 16 -12 56 -25 89 -17 41 -25 79 -25 120 0 33 -7 101 -15 150 -20
120 -19 164 5 234 11 33 26 101 35 151 13 84 18 96 55 136 28 30 40 53 40 73
0 22 10 37 39 60 27 22 53 60 85 123 36 70 60 104 105 145 33 29 62 53 65 53
3 0 45 22 93 49 185 102 206 110 322 131 62 11 127 27 144 34 41 18 29 18 197
1z m-2702 -121 c24 -10 71 -17 132 -18 80 -2 105 -6 154 -29 41 -19 88 -31
149 -37 101 -10 193 -47 246 -99 21 -20 42 -31 61 -31 23 0 47 -20 139 -117
79 -84 111 -125 111 -143 1 -29 11 -47 67 -121 24 -31 43 -66 43 -78 0 -12 18
-59 39 -105 34 -70 40 -91 39 -146 0 -39 6 -80 16 -102 20 -46 20 -112 1 -198
-8 -36 -14 -88 -15 -116 0 -62 -25 -146 -92 -314 -41 -99 -59 -132 -90 -160
-25 -22 -45 -53 -56 -85 -17 -49 -19 -51 -109 -95 -50 -25 -101 -57 -113 -72
-12 -16 -30 -28 -41 -28 -10 0 -24 -9 -31 -20 -7 -11 -23 -20 -36 -20 -13 0
-79 -25 -147 -55 -68 -30 -157 -64 -199 -77 -42 -12 -76 -26 -76 -31 0 -23 73
-75 149 -106 56 -22 97 -47 125 -75 24 -22 113 -83 199 -134 86 -51 185 -114
219 -141 35 -26 77 -51 93 -55 47 -12 122 -64 170 -120 43 -48 45 -53 45 -114
0 -108 -32 -154 -138 -197 -50 -20 -79 -25 -152 -25 -84 0 -96 3 -163 36 -51
26 -91 56 -137 104 -59 62 -70 69 -125 81 -84 17 -110 32 -190 108 -70 66 -82
74 -206 129 -50 22 -78 43 -118 90 -32 37 -71 69 -99 82 -26 12 -59 36 -73 54
l-27 31 -22 -20 c-24 -22 -24 -17 -4 -238 4 -42 2 -84 -6 -112 -7 -24 -13 -75
-14 -113 -1 -59 -5 -74 -29 -105 -36 -47 -106 -88 -162 -95 -50 -5 -180 24
-207 46 -9 8 -29 44 -43 80 -23 57 -26 77 -21 129 4 44 1 75 -10 105 -24 66
-30 283 -10 393 20 113 21 211 2 218 -8 3 -15 29 -18 69 -3 35 -12 77 -20 93
-13 24 -13 34 -2 73 8 25 13 84 13 136 -1 50 4 111 11 136 19 69 6 406 -20
496 -24 83 -25 123 -5 189 9 29 15 82 14 125 -1 41 2 87 6 102 4 17 0 46 -10
77 -14 44 -15 71 -6 218 7 123 15 184 30 227 12 33 21 81 21 107 0 46 1 48 37
60 20 6 68 29 107 50 40 21 98 42 133 49 34 6 78 17 97 25 26 11 42 12 62 5
15 -6 31 -7 38 -2 12 10 87 21 169 27 27 2 51 6 54 9 9 8 9 8 51 -10z"/>
<path d="M970 3665 c-19 -8 -56 -17 -82 -20 -94 -12 -117 -59 -82 -170 14 -46
14 -57 -2 -136 -16 -78 -16 -109 -6 -306 7 -120 17 -257 24 -303 9 -65 9 -114
-1 -220 -6 -75 -10 -143 -7 -151 2 -8 7 -26 10 -41 6 -25 8 -26 39 -17 17 5
100 9 183 8 117 -1 158 2 180 14 16 8 50 18 76 22 27 4 68 21 94 39 26 17 59
39 73 48 14 10 41 18 59 18 17 0 32 5 32 10 0 6 27 40 60 75 33 35 60 69 60
74 0 5 10 13 22 16 24 8 98 80 98 97 0 6 7 16 16 23 9 6 16 25 16 41 0 16 10
70 24 119 30 114 31 186 3 232 -12 19 -25 63 -29 100 -7 55 -16 76 -50 122
-22 31 -53 75 -68 99 -15 23 -34 45 -43 47 -9 3 -29 23 -43 44 -33 47 -100 85
-126 71 -19 -10 -100 5 -270 50 -51 14 -219 10 -260 -5z"/>
</g>
</svg>
